<svg xmlns="http://www.w3.org/2000/svg" viewBox="0 0 512 512"><!--!Font Awesome Free 6.5.2 by @fontawesome - https://fontawesome.com License - https://fontawesome.com/license/free Copyright 2024 Fonticons, Inc.--><path fill="#FFFFFF" d="M496 256c0 137-111 248-248 248S0 393 0 256 111 8 248 8s248 111 248 248zM227.3 380.9c-1.6-1.6-1.6-4.1 0-5.7l6.8-6.8c1.6-1.6 4.1-1.6 5.7 0l6.8 6.8c1.6 1.6 1.6 4.1 0 5.7l-6.8 6.8c-1.6 1.6-4.1 1.6-5.7 0zM256 128c-13.3 0-24 10.7-24 24v128c0 13.3 10.7 24 24 24s24-10.7 24-24V152c0-13.3-10.7-24-24-24z"/></svg>
