<svg xmlns="http://www.w3.org/2000/svg" viewBox="0 0 48 48"><path fill="#FFC107" d="M43.611,20.083H42V20H24v8h11.303c-1.649,4.657-6.08,8-11.303,8c-6.627,0-12-5.373-12-12c0-6.627,5.373-12,12-12c3.059,0,5.842,1.154,8.065,3.09l5.656-5.656C34.046,6.053,29.268,4,24,4C12.955,4,4,12.955,4,24c0,11.045,8.955,20,20,20c11.045,0,19.044-8.136,19.044-19.44C43.944,21.509,43.611,20.719,43.611,20.083z"/><path fill="#FF3D00" d="M6.306,14.691l6.571,4.819C14.655,15.108,18.961,12,24,12c3.059,0,5.842,1.154,8.065,3.09l5.656-5.656C34.046,6.053,29.268,4,24,4C16.318,4,9.656,8.337,6.306,14.691z" transform="translate(0 -4)"/><path fill="#4CAF50" d="M43.611,20.083H42V20H24v8h11.303c-1.649,4.657-6.08,8-11.303,8c-6.627,0-12-5.373-12-12c0-6.627,5.373-12,12-12c3.059,0,5.842,1.154,8.065,3.09l5.656-5.656C34.046,6.053,29.268,4,24,4C12.955,4,4,12.955,4,24c0,11.045,8.955,20,20,20c11.045,0,19.044-8.136,19.044-19.44C43.944,21.509,43.611,20.719,43.611,20.083z" transform="translate(0 4)"/><path fill="#1976D2" d="M43.611,20.083H42V20H24v8h11.303c-1.649,4.657-6.08,8-11.303,8c-6.627,0-12-5.373-12-12c0-6.627,5.373-12,12-12c3.059,0,5.842,1.154,8.065,3.09l5.656-5.656C34.046,6.053,29.268,4,24,4C12.955,4,4,12.955,4,24c0,11.045,8.955,20,20,20c11.045,0,19.044-8.136,19.044-19.44C43.944,21.509,43.611,20.719,43.611,20.083z" transform="translate(-4 0)"/></svg>
